<svg width="600" height="600" viewBox="0 0 600 600" fill="none" xmlns="http://www.w3.org/2000/svg">
  <path d="M247.5 85C247.5 69.8122 259.812 57.5 275 57.5H398.574C405.864 57.5 412.856 60.3964 418.01 65.5503L534.45 181.99C539.604 187.144 542.5 194.136 542.5 201.426V398.75C542.5 413.938 530.188 426.25 515 426.25H432.5V343.75H458.75V215.75H376.25C361.062 215.75 348.75 203.438 348.75 188.25V112.5H300V167.5H247.5V85ZM401.25 130.99V160.75H431.01L401.25 130.99Z" fill="black"/>
  <path d="M85 222.5C85 187.062 113.731 158.333 149.167 158.333H327.447C344.464 158.333 360.784 165.093 372.816 177.126L487.875 292.184C499.907 304.216 506.667 320.536 506.667 337.553V515.833C506.667 551.269 477.938 580 442.5 580H149.167C113.731 580 85 551.269 85 515.833V222.5ZM348.333 229.824V286.667C348.333 301.855 360.645 314.167 375.833 314.167H432.677L348.333 229.824ZM140 222.5V515.833C140 520.437 143.729 524.167 148.333 524.167H443.333C447.938 524.167 451.667 520.437 451.667 515.833V369.167H375.833C330.271 369.167 293.333 332.229 293.333 286.667V213.333H149.167C144.562 213.333 140 217.062 140 222.5Z" fill="black"/>
</svg>
