<svg width="280" height="280" viewBox="0 0 280 280" fill="none" xmlns="http://www.w3.org/2000/svg">
  <rect width="280" height="280" rx="36" fill="#111827"/>
  <circle cx="79" cy="78" r="22" fill="#F59E0B" fill-opacity="0.16"/>
  <circle cx="205" cy="209" r="18" fill="#EF4444" fill-opacity="0.18"/>
  <rect x="86" y="34" width="108" height="212" rx="24" fill="#1F2937" stroke="#F8FAFC" stroke-width="6"/>
  <rect x="101" y="58" width="78" height="146" rx="18" fill="#0F172A" stroke="#CBD5E1" stroke-width="3"/>
  <circle cx="140" cy="224" r="8" fill="#F8FAFC"/>
  <rect x="112" y="73" width="56" height="56" rx="16" fill="#FDE68A"/>
  <path d="M126 112C135 101 145 97 154 98C154 108 148 119 138 127C130 122 126 118 126 112Z" fill="#EF4444"/>
  <circle cx="119" cy="83" r="6" fill="#F8FAFC"/>
  <rect x="110" y="140" width="60" height="8" rx="4" fill="#F8FAFC"/>
  <rect x="110" y="154" width="47" height="8" rx="4" fill="#94A3B8"/>
  <rect x="110" y="168" width="54" height="8" rx="4" fill="#94A3B8"/>
  <path d="M46 182C46 170.954 54.9543 162 66 162H95C106.046 162 115 170.954 115 182V191H46V182Z" fill="#F8FAFC"/>
  <circle cx="81" cy="146" r="20" fill="#F8FAFC"/>
  <path d="M66 146C66 137.716 72.7157 131 81 131C89.2843 131 96 137.716 96 146V149H66V146Z" fill="#F59E0B"/>
  <path d="M193 98L211 82L229 98" stroke="#F8FAFC" stroke-width="6" stroke-linecap="round" stroke-linejoin="round"/>
  <rect x="192" y="99" width="38" height="30" rx="10" fill="#1E293B" stroke="#F8FAFC" stroke-width="4"/>
</svg>
